<svg id="Layer_1" data-name="Layer 1" xmlns="http://www.w3.org/2000/svg" viewBox="0 0 3170.85 839.25"><defs><style>.cls-1{fill:#026b3b;}.cls-2{font-size:138.4px;fill:#010101;font-family:Vegur-Regular, Vegur;}</style></defs><path class="cls-1" d="M526.92,786.11c-7.4.69-13.73,1.39-20.07,1.84-42.4,3-84.8,5.63-127.24.67-11.95-1.4-23.78-3.1-34.68-8.83-11.11-5.83-17.47-14.37-18.67-27.24-3.94-42.3-8.34-84.55-12.46-126.83-1.05-10.76.79-13.87,11.76-16.3,15.84-3.51,31.9-6.08,49.17-9.3-.32-5.5-.36-10.94-1-16.31-3.65-30.68-7.46-61.34-11.14-92-1.05-8.71.3-12,8.46-15,8.4-3.06,17.28-4.89,26.05-6.82,10.42-2.29,20.94-4.11,33.1-6.45-1.59-13.95-3-27.43-4.71-40.86-2.79-21.27-5.63-42.54-8.87-63.74-1.31-8.53.09-15.36,8.18-19.58,7.18-3.75,14.15-8.29,21.77-10.75,25.69-8.32,51.64-15.87,77.48-23.73,4.86-1.48,9.7-3,15.47-4.83-1.94-13.76-3.77-26.76-5.91-41.86,9.21,1.1,17.19,1.4,24.86,3.1,18,4,35.88,8.3,53.64,13.13a23.5,23.5,0,0,1,10.94,6c5.62,5.72,6.45,13.28,6.78,16.1,1.53,13,7.33,46.13,15.16,91.42l2.23,5.38a126.4,126.4,0,0,1,22.06,7.18c8.83,3.82,14.1,6.07,18.28,11.29,3.49,4.36,5.76,10,6.66,17.35,3.43,28.07,9.66,55.78,14.26,83.72,1.07,6.51,4.09,9.31,10.13,11.34a284.69,284.69,0,0,1,29.63,12.2c7,3.27,10.68,9.13,11.91,17.12,4.25,27.56,9.29,55,13.37,82.58,1.22,8.28,4.4,13.35,12.6,15.54,4.08,1.1,7.92,3.27,11.71,5.26,14.3,7.52,23.74,17.25,26.11,35.18,5.67,42.94,14.92,85.41,20.59,128.35,4.68,35.46,4.81,35.39-21,58.25-21.85,19.33-48.19,31.17-75.27,41.08-46.94,17.18-95.58,27.34-145,34.14-12.32,1.69-24.59,3.88-37,5-15,1.37-17.21-.8-19-15.33q-9.12-74.1-18.28-148.2C528.68,792.89,527.91,790.45,526.92,786.11Zm-1.21-21.35c2.81-.54,5.26-1.07,7.74-1.48,25.38-4.18,50.84-7.95,76.14-12.61,42.62-7.85,84.76-17.69,126-31.19,14.2-4.65,20.87-14.48,22.48-28.29a72.71,72.71,0,0,0-.76-19.19c-3.66-23.75-7.69-47.44-11.7-71.12-1.77-10.42-3.84-20.79-6-32.42-132,38.88-265,60.86-402.8,56.56,1.31,14.05,2.36,26.39,3.63,38.7,3.19,31.16,6.18,62.34,9.86,93.44,2,17.11,6.88,21.59,23.69,22.88,48.93,3.75,97.76,1.62,146.5-3.33,1.18-.12,2.29-1,3.35-1.47C524.47,771.75,525.05,768.46,525.71,764.76Zm24.5,10.12c-1.18,15,17.34,159.88,21.62,168.76,3.31,0,6.74.36,10.08-.06,45.59-5.68,90.45-14.79,134.17-29.06,26.16-8.53,51.74-18.28,73.56-35.81,10.44-8.38,20.06-17.48,26.57-29.35,4.84-8.83,7.53-18.11,5.76-28.39-5.72-33.37-11.26-66.78-17-100.15-.46-2.68-1.87-5.19-3.12-8.53-39.87,19.13-81,31.32-123,39.87C636.53,760.78,593.74,767.29,550.21,774.88Zm-167-288c6.45,42.61,12.69,83.88,19,125.68,6.85-.33,12-.26,17-.86,47.25-5.63,94.53-11,141.7-17.21,40.39-5.33,80.41-12.79,119.5-24.6,12.49-3.77,12.87-4.36,10.88-17.14q-6.63-42.58-13.36-85.16c-1.81-11.34-3.9-22.65-6.19-35.86C575.44,449.68,480.2,468.25,383.21,486.91Zm69.86-28.07c59.4-11,116.84-21.91,175.23-33.67-7.25-43-14.2-84.25-21.23-126-4.13.25-6.74,0-9.11.6-36,9.74-72.09,19.18-107.88,29.65-12.66,3.71-24.9,9.35-36.73,15.32-13.26,6.68-16.07,13.68-13.88,28.41,1.64,11,3.26,22.08,5,33.1C447.18,423.13,450,440,453.07,458.84Zm109-163.23q11.67-3.21,24.13-6.17,8.84-2.1,17.39-3.88a184.54,184.54,0,0,0-18.41-5.07c-2.68-.59-6.36-1.29-13.6-2.67-5.37-1-9.8-1.84-12.81-2.4Zm216.57,370.9,4.2,29.91,20-8.34a21.53,21.53,0,0,0-2.67-9.33,23,23,0,0,0-10.34-9.34A27.47,27.47,0,0,0,778.67,666.51ZM716.78,558.3c2.14-.73,5.09-1.69,8.64-2.67,9.84-2.72,13.47-2.71,13.84-4.46.66-3.13-10.08-7.86-12.21-8.8a57.06,57.06,0,0,0-13.2-4Q715.32,548.33,716.78,558.3ZM651,420.93q7.25-1.83,15-3.4c1.74-.35,3.48-.68,5.2-1a53,53,0,0,0-11.21-7.2,52.39,52.39,0,0,0-11.8-4ZM378,615.65l-2.22-6.26-17.87,4a21,21,0,0,0,8.27,3.47A21.43,21.43,0,0,0,378,615.65Z" transform="translate(-182.87 -120.02)"/><path class="cls-1" d="M257.11,120l14.17,9.1c-5.71,7.41-11,14-16,20.8-29.47,40.64-49.43,85.27-54.6,135.59a176,176,0,0,0,.75,38.45q12.89,108.57,94.21,182c3.45,3.11,6.73,6.41,11.09,10.58l-11.51,10.07C173.92,437,135.53,252.6,257.11,120Z" transform="translate(-182.87 -120.02)"/><path class="cls-1" d="M843.6,140.08,857.43,132c96.08,106.1,89.74,286.18-42,391.21l-12.6-10.27c5.74-5.49,10.64-10.12,15.48-14.82,37.76-36.7,64.93-79.78,77.58-131.23C913.5,295,900.9,228.13,861.52,166,856.25,157.66,850.32,149.76,843.6,140.08Z" transform="translate(-182.87 -120.02)"/><path class="cls-1" d="M750.45,203.43c5-6.27,8.93-6.32,13.16-.88C781.1,225,793.2,249.76,797,278.18c6.48,48.42-9.54,89.53-41.6,125.06-7.73,8.57-16.55,16.2-25.27,23.8-5.13,4.47-5.49,4.06-12.29-1.87,9.43-9.24,19.25-18.11,28.2-27.77,24.18-26.09,38.34-57,40.25-92.55,1.79-33.24-8.65-63.42-27.8-90.57C756,210.79,753.41,207.42,750.45,203.43Z" transform="translate(-182.87 -120.02)"/><path class="cls-1" d="M362.54,403.43c-5.94,6.68-10.11,4.76-14.6-.18-47.17-51.87-57.39-121.87-20.28-182.76,4.89-8,10.95-15.33,16.59-22.87,3.47-4.64,7.41-5.5,12.71.39-2.18,3-4.48,6.34-6.92,9.55-15,19.72-26,41.33-30.37,65.93-8.23,46.4,6.06,86.23,35.61,121.57C357.45,397.66,359.72,400.18,362.54,403.43Z" transform="translate(-182.87 -120.02)"/><path class="cls-1" d="M666.91,267.44l4.33-2.56c3.86,3.6,16.69,16.41,19.2,37.22,3.39,28-14.65,47.36-17.2,50l-5.65-4.44c3.27-4.07,7.08-10.49,11-18.57,3.13-6.41,5.3-13.2,5.31-20.89C684,292.16,676,279.74,666.91,267.44Z" transform="translate(-182.87 -120.02)"/><path class="cls-1" d="M430.87,253.3l-3.58-3.45c-4.55,2.59-19.84,12-27,31.49-9.65,26.19,3.31,49,5.17,52.15l6.46-3c-2.23-4.67-4.43-11.73-6.39-20.42-1.55-6.89-2.09-13.93-.35-21.35C408.81,273.25,419.27,263.08,430.87,253.3Z" transform="translate(-182.87 -120.02)"/><path class="cls-1" d="M1999,401.45a180.06,180.06,0,0,1,31.82,46.41c32,67.63,26.91,169.91-37.09,220.78-12,9.58-38,26.69-81.19,30.47l-161.34-1.59-.15-567,158.88.52c14,1.79,36,6.52,57.93,20.88,70,45.8,66.44,141.81,66,150.38C2031.45,348.14,2012.05,382.6,1999,401.45ZM1859,459.7l.56,129.16c7.93,2,29.06,6.1,47.16-5,32.84-20.09,39.64-80.4,9.75-108.75C1895.68,455.43,1865.27,458.86,1859,459.7Zm.14-113.21c7.2,1.11,24.73,2.71,39.52-7.66,26.53-18.6,31.2-66.58,6.75-88.87-16.94-15.45-41.11-12.43-46.27-11.68Z" transform="translate(-182.87 -120.02)"/><path class="cls-1" d="M1275.45,401.26a180.32,180.32,0,0,1,31.81,46.41c32,67.63,26.91,169.91-37.09,220.79-12,9.57-38,26.69-81.18,30.46l-161.35-1.59-.15-567,158.88.51c14,1.79,36,6.52,57.93,20.89,70,45.79,66.44,141.8,66,150.37C1307.91,348,1288.52,382.42,1275.45,401.26Zm-140,58.25.57,129.16c7.92,2,29,6.11,47.15-5,32.85-20.1,39.64-80.4,9.75-108.75C1172.14,455.24,1141.73,458.67,1135.45,459.51Zm.14-113.2c7.2,1.1,24.73,2.7,39.52-7.67,26.54-18.6,31.2-66.58,6.75-88.87-16.94-15.45-41.11-12.43-46.27-11.67Z" transform="translate(-182.87 -120.02)"/><path class="cls-1" d="M3352.73,697.71l-98.3-.29-72.07-242.78-9.07-.08,0,243-98.94,0V130.42h99.45l71.55,216.07h9L3254,130.71h99.7Z" transform="translate(-182.87 -120.02)"/><path class="cls-1" d="M2729.87,230c3.05-12.37,14.59-52.43,53.44-81.42,36.18-27,74.06-28,88.88-28.12,16.93-.19,52.69-.1,86.77,24.47,40.64,29.31,50.61,73,52.85,84.47l.38,363.53c-1.22,13.32-5.54,38.51-23.63,62.25-38.36,50.37-103.68,48.36-110.75,48-9.9.39-75.29,1.92-118.41-48.1-19-22.08-26.45-45.76-29.6-60.25Zm175.34,53.71c.27-8.73.76-35.36-14.09-46.9-4.88-3.79-11.14-5.63-19-6-23.46-1-35.52,12.21-36.15,49.68q-2.23,133.15-.22,266.37c.56,38.11,11.86,51.13,35.11,50.81,8.2-.11,14.77-1.9,19.87-5.77,14.77-11.19,14.58-37,14.4-46C2904.54,514.44,2903.86,326.82,2905.21,283.67Z" transform="translate(-182.87 -120.02)"/><path class="cls-1" d="M1462.7,130.51l130.89.05,97.35,567-109.06-.11-18.59-113.83-69.28-.51q-10.24,57.23-20.48,114.45h-110Q1413.12,414,1462.7,130.51Zm81.39,336.85-16.78-144.47h-2.62q-7.64,72.12-15.25,144.24Z" transform="translate(-182.87 -120.02)"/><path class="cls-1" d="M2051.48,130.85l115.46-.14q25.39,80.7,50.8,161.4,27.38-80.51,54.76-161h113.81L2279.44,409.89l-.29,287.82-112.61.13,0-288.88Z" transform="translate(-182.87 -120.02)"/><path class="cls-1" d="M2439.14,130.71l107.85-.19.13,460.67,137.14.31.1,106-245.32,0Z" transform="translate(-182.87 -120.02)"/><text class="cls-2" transform="translate(834.22 761.65) scale(0.93 1)">Celebrating Cultures, Promoting Integration</text><path class="cls-1" d="M2600.56,131.27" transform="translate(-182.87 -120.02)"/></svg>